<svg xmlns="http://www.w3.org/2000/svg" width="1600" height="900" viewBox="0 0 1600 900">
  <defs>
    <linearGradient id="bg" x1="0" y1="0" x2="1" y2="1">
      <stop offset="0" stop-color="#1e1b4b"/>
      <stop offset=".55" stop-color="#0f172a"/>
      <stop offset="1" stop-color="#020617"/>
    </linearGradient>
    <linearGradient id="accent" x1="0" y1="0" x2="1" y2="0">
      <stop offset="0" stop-color="#6366f1"/>
      <stop offset="1" stop-color="#22d3ee"/>
    </linearGradient>
    <radialGradient id="glow" cx=".75" cy=".1" r=".6">
      <stop offset="0" stop-color="#4338ca" stop-opacity=".55"/>
      <stop offset="1" stop-color="#4338ca" stop-opacity="0"/>
    </radialGradient>
  </defs>
  <rect width="1600" height="900" fill="url(#bg)"/>
  <rect width="1600" height="900" fill="url(#glow)"/>

  <!-- LEFT -->
  <text x="90" y="120" font-family="Inter,Arial,sans-serif" font-size="34" font-weight="800" fill="#ffffff">RESIDA<tspan fill="#818cf8"> PRO</tspan></text>
  <text x="90" y="145" font-family="Inter,Arial,sans-serif" font-size="15" fill="#94a3b8">Apartman ve site yönetim programı</text>

  <text x="90" y="240" font-family="Inter,Arial,sans-serif" font-size="56" font-weight="900" fill="#ffffff">Site yönetimini</text>
  <text x="90" y="305" font-family="Inter,Arial,sans-serif" font-size="56" font-weight="900" fill="#a5b4fc">Excel'den kurtarın.</text>
  <text x="90" y="350" font-family="Inter,Arial,sans-serif" font-size="20" fill="#cbd5e1">Aidat, gider, tahsilat ve sakin yönetimi tek panelde.</text>

  <g font-family="Inter,Arial,sans-serif" font-size="19" fill="#e2e8f0">
    <circle cx="104" cy="408" r="13" fill="#10b981"/>
    <text x="98" y="414" font-size="14" font-weight="800" fill="#ffffff">✓</text>
    <text x="128" y="415">Aidat takibi + otomatik faiz</text>
    <circle cx="104" cy="452" r="13" fill="#10b981"/>
    <text x="98" y="458" font-size="14" font-weight="800" fill="#ffffff">✓</text>
    <text x="128" y="459">Ödeme doğrudan site hesabına</text>
    <circle cx="104" cy="496" r="13" fill="#10b981"/>
    <text x="98" y="502" font-size="14" font-weight="800" fill="#ffffff">✓</text>
    <text x="128" y="503">Dekont onayı tek dokunuşla</text>
    <circle cx="104" cy="540" r="13" fill="#10b981"/>
    <text x="98" y="546" font-size="14" font-weight="800" fill="#ffffff">✓</text>
    <text x="128" y="547">Sakin mobil paneli + WhatsApp</text>
  </g>

  <rect x="90" y="600" width="300" height="64" rx="14" fill="url(#accent)"/>
  <text x="240" y="641" font-family="Inter,Arial,sans-serif" font-size="24" font-weight="800" fill="#ffffff" text-anchor="middle">Ücretsiz Başlayın</text>
  <text x="90" y="700" font-family="Inter,Arial,sans-serif" font-size="22" font-weight="700" fill="#c7d2fe">residapro.com</text>
  <text x="90" y="730" font-family="Inter,Arial,sans-serif" font-size="15" fill="#64748b">Mini 149 TL • Standart 349 TL • Pro 599 TL</text>

  <!-- RIGHT : dashboard mockup -->
  <g>
    <rect x="700" y="70" width="810" height="760" rx="24" fill="#0b1224" stroke="rgba(255,255,255,.12)" stroke-width="1.5"/>
    <rect x="700" y="70" width="810" height="56" rx="24" fill="#141e3a"/>
    <rect x="700" y="100" width="810" height="26" fill="#141e3a"/>
    <circle cx="736" cy="98" r="7" fill="#ef4444"/>
    <circle cx="760" cy="98" r="7" fill="#f59e0b"/>
    <circle cx="784" cy="98" r="7" fill="#22c55e"/>
    <text x="810" y="103" font-family="Inter,Arial,sans-serif" font-size="15" fill="#94a3b8">Yönetici Paneli — Canlı</text>
    <rect x="1420" y="86" width="60" height="24" rx="12" fill="#10b981"/>
    <text x="1450" y="103" font-family="Inter,Arial,sans-serif" font-size="13" font-weight="700" fill="#ffffff" text-anchor="middle">Canlı</text>

    <g font-family="Inter,Arial,sans-serif">
      <rect x="730" y="150" width="240" height="110" rx="14" fill="#111c36" stroke="rgba(255,255,255,.07)"/>
      <text x="750" y="178" font-size="13" fill="#94a3b8">TAHSİLAT</text>
      <text x="750" y="212" font-size="30" font-weight="800" fill="#ffffff">₺284.600</text>
      <text x="750" y="238" font-size="13" fill="#22c55e">▲ %12 bu ay</text>

      <rect x="985" y="150" width="240" height="110" rx="14" fill="#111c36" stroke="rgba(255,255,255,.07)"/>
      <text x="1005" y="178" font-size="13" fill="#94a3b8">GECİKME</text>
      <text x="1005" y="212" font-size="30" font-weight="800" fill="#ffffff">23 daire</text>
      <text x="1005" y="238" font-size="13" fill="#f59e0b">Faiz açık</text>

      <rect x="1240" y="150" width="240" height="110" rx="14" fill="#111c36" stroke="rgba(255,255,255,.07)"/>
      <text x="1260" y="178" font-size="13" fill="#94a3b8">BEKLEYEN</text>
      <text x="1260" y="212" font-size="30" font-weight="800" fill="#ffffff">8 dekont</text>
      <text x="1260" y="238" font-size="13" fill="#60a5fa">Onay bekliyor</text>
    </g>

    <g font-family="Inter,Arial,sans-serif" font-size="16">
      <rect x="730" y="285" width="750" height="76" rx="12" fill="rgba(255,255,255,.045)" stroke="rgba(255,255,255,.07)"/>
      <circle cx="762" cy="323" r="17" fill="#6366f1"/>
      <text x="762" y="329" font-size="15" font-weight="800" fill="#fff" text-anchor="middle">A</text>
      <text x="792" y="318" font-weight="700" fill="#fff">A Blok — Daire 12 • Ayşe Yılmaz</text>
      <text x="792" y="342" font-size="13" fill="#94a3b8">Nisan aidatı • Son gün 10.04 • 1.250 ₺</text>
      <rect x="1380" y="308" width="76" height="30" rx="15" fill="#10b981"/>
      <text x="1418" y="329" font-size="14" font-weight="700" fill="#fff" text-anchor="middle">Ödendi</text>

      <rect x="730" y="373" width="750" height="76" rx="12" fill="rgba(255,255,255,.045)" stroke="rgba(255,255,255,.07)"/>
      <circle cx="762" cy="411" r="17" fill="#ef4444"/>
      <text x="762" y="417" font-size="15" font-weight="800" fill="#fff" text-anchor="middle">!</text>
      <text x="792" y="406" font-weight="700" fill="#fff">B Blok — Daire 7 • Mehmet Demir</text>
      <text x="792" y="430" font-size="13" fill="#94a3b8">Mart aidatı • 18 gün gecikme • 1.250 ₺ + 47 ₺ faiz</text>
      <rect x="1380" y="396" width="76" height="30" rx="15" fill="#ef4444"/>
      <text x="1418" y="417" font-size="14" font-weight="700" fill="#fff" text-anchor="middle">Gecikti</text>

      <rect x="730" y="461" width="750" height="76" rx="12" fill="rgba(255,255,255,.045)" stroke="rgba(255,255,255,.07)"/>
      <circle cx="762" cy="499" r="17" fill="#06b6d4"/>
      <text x="762" y="505" font-size="15" font-weight="800" fill="#fff" text-anchor="middle">R</text>
      <text x="792" y="494" font-weight="700" fill="#fff">Dekont yüklendi — C Blok D:4</text>
      <text x="792" y="518" font-size="13" fill="#94a3b8">Havale • 1.250 ₺ • 2 dk önce</text>
      <rect x="1380" y="484" width="76" height="30" rx="15" fill="#6366f1"/>
      <text x="1418" y="505" font-size="14" font-weight="700" fill="#fff" text-anchor="middle">Onayla</text>
    </g>

    <g>
      <text x="730" y="580" font-family="Inter,Arial,sans-serif" font-size="15" font-weight="700" fill="#cbd5e1">Aylık tahsilat</text>
      <rect x="730" y="594" width="750" height="150" rx="12" fill="rgba(255,255,255,.03)" stroke="rgba(255,255,255,.07)"/>
      <g fill="#6366f1">
        <rect x="760" y="680" width="44" height="40" rx="5"/>
        <rect x="820" y="660" width="44" height="60" rx="5"/>
        <rect x="880" y="670" width="44" height="50" rx="5"/>
        <rect x="940" y="640" width="44" height="80" rx="5"/>
        <rect x="1000" y="650" width="44" height="70" rx="5"/>
        <rect x="1060" y="620" width="44" height="100" rx="5"/>
      </g>
      <g fill="#22c55e">
        <rect x="1120" y="630" width="44" height="90" rx="5"/>
        <rect x="1180" y="610" width="44" height="110" rx="5"/>
        <rect x="1240" y="625" width="44" height="95" rx="5"/>
        <rect x="1300" y="600" width="44" height="120" rx="5"/>
        <rect x="1360" y="615" width="44" height="105" rx="5"/>
        <rect x="1420" y="595" width="44" height="125" rx="5"/>
      </g>
    </g>
  </g>

  <text x="90" y="845" font-family="Inter,Arial,sans-serif" font-size="15" fill="#475569">© 2026 RESIDA PRO • KVKK uyumlu • Günlük yedek</text>
</svg>
